# xmcd CD database file
#
# Track frame offsets:
#	180
#	11343
#	23887
#	37428
#	48775
#	61872
#	76046
#	89989
#	104010
#	124021
#	138238
#	151652
#	166073
#	179199
#	189811
#	203111
#
# Disc length: 2904 seconds
#
# Revision: 1
# Processed by: cddbd v1.5.2PL0 Copyright (c) Steve Scherf et al.
# Submitted via: CDex 1.70beta2
#
DISCID=ce0b5610
DTITLE=Various Artist - Creamy Jazz Collection CD2
DYEAR=1900
DGENRE=Jazz
TTITLE0=I found a new baby - Josephine Baker
TTITLE1=I'm getting sentimental over you - The Ink Spots
TTITLE2=I love you truly - Louis Prima
TTITLE3=I can't believe that you're in love with me - Ella Fitzgerald
TTITLE4=Georgia on my mind - Anita O'Day
TTITLE5=As time goes by - Billie Holiday
TTITLE6=And her tears flowed like wine - Anita O'Day
TTITLE7=I'd love to make love to you - Nat King Cole
TTITLE8=Always be in love with you - Ella Fitzgerald
TTITLE9=I'm in the mood for love - Nat King Cole
TTITLE10=Baby, baby all the time - Nat King Cole
TTITLE11=Everybody loves somebody - Peggy Lee
TTITLE12=I only have eyes for you - Erroll Garner
TTITLE13=Imagination - Stan Getz
TTITLE14=Azure - Les Brown
TTITLE15=I'll see you in my dreams
EXTD=
EXTT0=
EXTT1=
EXTT2=
EXTT3=
EXTT4=
EXTT5=
EXTT6=
EXTT7=
EXTT8=
EXTT9=
EXTT10=
EXTT11=
EXTT12=
EXTT13=
EXTT14=
EXTT15=
PLAYORDER=
